<svg xmlns="http://www.w3.org/2000/svg" xmlns:xlink="http://www.w3.org/1999/xlink" width="640" height="2228.174" viewBox="0 0 640 2228.174">
  <defs>
    <linearGradient id="linear-gradient" y1="0.5" x2="1" y2="0.5" gradientUnits="objectBoundingBox">
      <stop offset="0" stop-color="#009dd9"/>
      <stop offset="1" stop-color="#17406d"/>
    </linearGradient>
  </defs>
  <g id="Group_135" data-name="Group 135" transform="translate(-698.5 -1625.326)">
    <path id="animated_strip" data-name="animated strip" d="M12,0H511.2a0,0,0,0,1,0,0V0a12,12,0,0,1-12,12H0a0,0,0,0,1,0,0v0A12,12,0,0,1,12,0Z" transform="translate(1338.5 1625.326) rotate(90)" fill="url(#linear-gradient)"/>
    <path id="animated_strip-2" data-name="animated strip" d="M0,0H628.857A11.143,11.143,0,0,1,640,11.143V12a0,0,0,0,1,0,0H12A12,12,0,0,1,0,0V0A0,0,0,0,1,0,0Z" transform="translate(698.5 2124)" fill="url(#linear-gradient)"/>
    <path id="animated_strip-3" data-name="animated strip" d="M12,0H222.517a0,0,0,0,1,0,0V0a12,12,0,0,1-12,12H0a0,0,0,0,1,0,0v0A12,12,0,0,1,12,0Z" transform="translate(710.5 2124) rotate(90)" fill="url(#linear-gradient)"/>
    <path id="animated_strip-4" data-name="animated strip" d="M12,0H432.959a0,0,0,0,1,0,0V0a12,12,0,0,1-12,12H0a0,0,0,0,1,0,0v0A12,12,0,0,1,12,0Z" transform="translate(710.5 2486.54) rotate(90)" fill="url(#linear-gradient)"/>
    <path id="animated_strip-5" data-name="animated strip" d="M0,0H628.857A11.143,11.143,0,0,1,640,11.143V12a0,0,0,0,1,0,0H12A12,12,0,0,1,0,0V0A0,0,0,0,1,0,0Z" transform="translate(698.5 2907.499)" fill="url(#linear-gradient)"/>
    <path id="animated_strip-6" data-name="animated strip" d="M12,0H222.517a0,0,0,0,1,0,0V0a12,12,0,0,1-12,12H0a0,0,0,0,1,0,0v0A12,12,0,0,1,12,0Z" transform="translate(1338.5 2907.499) rotate(90)" fill="url(#linear-gradient)"/>
    <path id="animated_strip-7" data-name="animated strip" d="M12,0H394.291a0,0,0,0,1,0,0V0a12,12,0,0,1-12,12H0a0,0,0,0,1,0,0v0A12,12,0,0,1,12,0Z" transform="translate(1338.5 3249.984) rotate(90)" fill="url(#linear-gradient)"/>
    <path id="animated_strip-8" data-name="animated strip" d="M0,0H628.857A11.143,11.143,0,0,1,640,11.143V12a0,0,0,0,1,0,0H12A12,12,0,0,1,0,0V0A0,0,0,0,1,0,0Z" transform="translate(698.5 3632.275)" fill="url(#linear-gradient)"/>
    <path id="animated_strip-9" data-name="animated strip" d="M12,0H222.517a0,0,0,0,1,0,0V0a12,12,0,0,1-12,12H0a0,0,0,0,1,0,0v0A12,12,0,0,1,12,0Z" transform="translate(710.5 3630.983) rotate(90)" fill="url(#linear-gradient)"/>
  </g>
</svg>
